<svg xmlns="http://www.w3.org/2000/svg" width="24" height="24" viewBox="0 0 24 24" fill="none" stroke="hsl(221.2 83.2% 53.3%)" stroke-width="2" stroke-linecap="round" stroke-linejoin="round" class="lucide lucide-trophy"><path d="M6 9H4.5a2.5 2.5 0 0 1 0-5H6"/><path d="M18 9h1.5a2.5 2.5 0 0 0 0-5H18"/><path d="M4 22h16"/><path d="M10 14.66V17c0 .55-.47.98-.97 1.21C7.85 18.75 7 20.24 7 22"/><path d="M14 14.66V17c0 .55.47.98.97 1.21C16.15 18.75 17 20.24 17 22"/><path d="M8 21v-1a2 2 0 0 0-2-2H4"/><path d="M16 21v-1a2 2 0 0 1 2-2h2"/><path d="M12 5.09V12-2.91"/><path d="M8 4a2 2 0 0 1-2-2V1a2 2 0 0 1 2-2h8a2 2 0 0 1 2 2v1a2 2 0 0 1-2 2Z"/><path d="M12 12a4.5 4.5 0 0 0 4.5-4.5V3h-9v4.5A4.5 4.5 0 0 0 12 12Z"/></svg>
