<svg width="256" height="256" viewBox="0 0 256 256" fill="none" xmlns="http://www.w3.org/2000/svg">
<g clip-path="url(#clip0_103_2)">
<path d="M256 256H0V0H256V256Z" fill="white"/>
<path d="M106.844 206.521L158.531 103.85L106.844 144.118V206.521Z" fill="#34A853"/>
<path d="M106.844 122.999L158.531 21.3125L106.844 83.7153V122.999Z" fill="#34A853"/>
<path d="M86.4375 144.118L138.124 246.79L86.4375 184.387V144.118Z" fill="#4285F4"/>
<path d="M86.4375 122.999L138.124 21.3125L86.4375 83.7153V122.999Z" fill="#4285F4"/>
<path d="M127.258 49.3765L178.944 152.048L127.258 111.779V49.3765Z" fill="#FABB05"/>
<path d="M127.258 206.521L178.944 103.85L127.258 144.118V206.521Z" fill="#FABB05"/>
<path d="M66.0234 83.7153L117.71 186.387L66.0234 123.984V83.7153Z" fill="#EA4335"/>
<path d="M66.0234 144.118L117.71 41.4463L66.0234 103.85V144.118Z" fill="#EA4335"/>
</g>
<defs>
<clipPath id="clip0_103_2">
<rect width="256" height="256" fill="white"/>
</clipPath>
</defs>
</svg>
